<svg xmlns="http://www.w3.org/2000/svg" xmlns:xlink="http://www.w3.org/1999/xlink" width="164.695" height="54.687" viewBox="0 0 164.695 54.687">
  <defs>
    <linearGradient id="linear-gradient" x1="0.124" y1="0.863" x2="0.853" y2="0.226" gradientUnits="objectBoundingBox">
      <stop offset="0" stop-color="#e93a43"/>
      <stop offset="1" stop-color="#ffe241"/>
    </linearGradient>
    <linearGradient id="linear-gradient-2" x1="0.02" y1="0.067" x2="0.824" y2="0.801" gradientUnits="objectBoundingBox">
      <stop offset="0" stop-color="#e31356"/>
      <stop offset="1" stop-color="#ffbf51"/>
    </linearGradient>
    <linearGradient id="linear-gradient-3" x1="-571.615" y1="-122.892" x2="737.639" y2="159.483" xlink:href="#linear-gradient-2"/>
    <linearGradient id="linear-gradient-4" x1="-88.517" y1="-35.899" x2="78.742" y2="32.493" xlink:href="#linear-gradient-2"/>
    <linearGradient id="linear-gradient-5" x1="-41.85" y1="-19.029" x2="35.23" y2="16.515" xlink:href="#linear-gradient-2"/>
    <linearGradient id="linear-gradient-7" x1="-10.626" y1="-17.846" x2="0.331" y2="0.221" xlink:href="#linear-gradient-2"/>
    <linearGradient id="linear-gradient-8" x1="-226.153" y1="-408.38" x2="36.835" y2="66.049" xlink:href="#linear-gradient-2"/>
    <linearGradient id="linear-gradient-9" x1="-23.242" y1="-44.63" x2="3.862" y2="6.891" xlink:href="#linear-gradient-2"/>
    <linearGradient id="linear-gradient-10" y1="0.5" x2="1" y2="0.5" gradientUnits="objectBoundingBox">
      <stop offset="0" stop-color="#0d3a8f"/>
      <stop offset="1" stop-color="#2b7bc1"/>
    </linearGradient>
  </defs>
  <g id="Group_4501" data-name="Group 4501" transform="translate(-7060.027 -820.086)">
    <g id="Group_4497" data-name="Group 4497" transform="translate(7132.503 837.586)">
      <path id="Path_14706" data-name="Path 14706" d="M7369.444,899.8h.15l3.538-6.054h5.183l-5.782,9.582,5.969,9.582h-5.315l-3.592-6.119h-.15l-3.593,6.119h-5.277l5.941-9.582-5.792-9.582h5.222Z" transform="translate(-7360.574 -893.48)" fill="#201744"/>
      <path id="Path_14707" data-name="Path 14707" d="M7451.708,899.861a3.453,3.453,0,0,0-3.715-3.144c-2.8,0-4.482,2.124-4.482,5.782,0,3.808,1.721,5.783,4.454,5.783a3.484,3.484,0,0,0,3.743-2.938l4.678.028c-.346,3.4-3.256,6.971-8.515,6.971-5.2,0-9.085-3.537-9.085-9.844,0-6.334,3.977-9.843,9.085-9.843,4.632,0,8.047,2.62,8.515,7.2Z" transform="translate(-7419.925 -892.656)" fill="#201744"/>
      <path id="Path_14708" data-name="Path 14708" d="M7530.99,912.343c-5.165,0-9.141-3.537-9.141-9.844,0-6.334,3.977-9.843,9.141-9.843,5.146,0,9.151,3.509,9.151,9.843S7536.137,912.343,7530.99,912.343Zm0-15.626c-2.76,0-4.416,2.031-4.416,5.782s1.656,5.783,4.416,5.783,4.417-2.031,4.417-5.783S7533.76,896.717,7530.99,896.717Z" transform="translate(-7482.958 -892.656)" fill="#201744"/>
      <path id="Path_14709" data-name="Path 14709" d="M7608.866,893.742h7.916c4.3,0,6.989,2.442,6.989,6.382a5.609,5.609,0,0,1-3.322,5.483l3.977,7.3h-5.053l-3.5-6.559H7613.5v6.559h-4.631Zm6.915,8.955c2.077,0,3.19-.8,3.19-2.573s-1.114-2.648-3.19-2.648H7613.5V902.7Z" transform="translate(-7548.991 -893.48)" fill="#201744"/>
      <path id="Path_14710" data-name="Path 14710" d="M7681.179,893.742h7.917c4.3,0,6.989,2.7,6.989,6.634,0,3.977-2.742,6.578-7.13,6.578h-3.144v5.951h-4.632Zm6.915,9.563c2.077,0,3.191-1.16,3.191-2.929s-1.114-2.9-3.191-2.9h-2.283V903.3Z" transform="translate(-7603.866 -893.48)" fill="#201744"/>
    </g>
    <g id="Group_4498" data-name="Group 4498" transform="translate(7072.765 848.264)">
      <path id="Path_14711" data-name="Path 14711" d="M7158.949,945.238c.007.174.01.347.01.523a17.045,17.045,0,0,1-3.506,10.369,17.18,17.18,0,0,1-4.218,4.124l-.014.007a26.64,26.64,0,0,1-2.947,1.346c-.34.135-.682.26-1.031.378a.529.529,0,0,1-.085.027,26.92,26.92,0,0,1-3.217.873.065.065,0,0,1-.021,0c-.7.143-1.416.26-2.137.348,0,0,0,0,0,0s0,0,0,0a26.787,26.787,0,0,1-2.725.2h-.015c-.208.007-.417.009-.625.009a27.207,27.207,0,0,1-16.566-5.592c-.6-.451-1.175-.931-1.731-1.433l-.051-.048a27.414,27.414,0,0,1-4.671-5.51,26.887,26.887,0,0,1-2.539-5.03c.058.14.115.282.178.419a17.172,17.172,0,0,0,6.061,7.227q.64.434,1.319.81a16.983,16.983,0,0,0,5.167,1.847,16.794,16.794,0,0,0,2.329.26c.2.012.4.017.606.017.053,0,.108,0,.161,0a17.011,17.011,0,0,0,4.69-.653s0,0,0,0c.249-.07.5-.145.739-.227s.484-.169.723-.261c.041.008.084.015.128.025q.842.152,1.712.226c.574.05,1.155.077,1.743.077q.663,0,1.314-.046c.348-.022.692-.053,1.035-.1s.675-.087,1.008-.145c.258-.046.511-.094.764-.15h0q.354-.076.7-.166h0a18.975,18.975,0,0,0,2.269-.731c.095-.036.188-.072.28-.113a18.985,18.985,0,0,0,2.293-1.117h0a19.67,19.67,0,0,0,8.361-9.513v0c.091-.215.175-.432.258-.651.089-.239.171-.48.249-.721v0c.067-.2.13-.4.188-.6.054-.181.1-.359.149-.54v0c.087-.335.167-.673.236-1.015v0c.021-.111.043-.222.063-.335.027-.144.053-.289.072-.434.039-.22.07-.439.1-.661.041-.306.072-.617.094-.928.02-.229.034-.461.039-.692a27.311,27.311,0,0,1,1.071,7.6c0,.234,0,.465-.01.7C7158.951,945.231,7158.951,945.233,7158.949,945.238Z" transform="translate(-7112.849 -936.935)" fill="url(#linear-gradient)"/>
    </g>
    <g id="Group_4499" data-name="Group 4499" transform="translate(7071.159 832.51)">
      <path id="Path_14712" data-name="Path 14712" d="M7129.77,905.7q-.358.138-.723.261c-.244.08-.49.154-.738.227,0,0,0,0,0,0a17.454,17.454,0,0,1-4.709.641,17.019,17.019,0,0,1-8.245-2.115q-.68-.376-1.319-.81c-.238-.161-.47-.33-.7-.5l-.072-.055a17.181,17.181,0,0,1-5.289-6.67c-.062-.137-.12-.28-.178-.419a.2.2,0,0,1-.012-.027c-.082-.2-.162-.4-.236-.608-.005,0-.005,0,0-.007-.087-.241-.169-.485-.247-.729a.283.283,0,0,1-.012-.043c-.017-.056-.036-.111-.05-.166s-.033-.113-.051-.169c0-.005,0-.007,0-.012a.055.055,0,0,1,0-.012.04.04,0,0,0,0-.014c-.022-.077-.046-.157-.068-.234q-.245-.839-.439-1.7c-.031-.132-.062-.263-.089-.4-.022-.1-.041-.193-.061-.29-.015-.079-.031-.161-.046-.241l-.015-.072a.678.678,0,0,1-.015-.092.486.486,0,0,1-.014-.082l-.007-.043c-.012-.072-.024-.145-.034-.22s-.029-.178-.041-.265c-.014-.106-.028-.212-.039-.318,0-.039-.009-.077-.014-.118-.007-.07-.014-.142-.022-.214-.01-.1-.019-.2-.026-.3-.012-.143-.021-.282-.029-.424v0c-.01-.157-.017-.313-.019-.47s-.008-.316-.008-.475a17.09,17.09,0,0,1,14.578-16.9,18.561,18.561,0,0,0-1.744,1.664c-.031.031-.061.063-.089.1a19.5,19.5,0,0,0,8.471,31.73A19.616,19.616,0,0,0,7129.77,905.7Z" transform="translate(-7106.188 -871.605)" fill="url(#linear-gradient-2)"/>
      <path id="Path_14713" data-name="Path 14713" d="M7107.238,953.866a.552.552,0,0,0,.015.092c0-.007,0-.015-.005-.024S7107.24,953.89,7107.238,953.866Z" transform="translate(-7106.984 -934.029)" fill="url(#linear-gradient-3)"/>
      <path id="Path_14714" data-name="Path 14714" d="M7110.419,966.911c0,.014.008.029.012.043-.016-.043-.029-.087-.041-.13-.027-.082-.051-.164-.073-.248C7110.352,966.689,7110.383,966.8,7110.419,966.911Z" transform="translate(-7109.322 -943.674)" fill="url(#linear-gradient-4)"/>
      <path id="Path_14715" data-name="Path 14715" d="M7110.788,968.145c.077.244.159.487.246.729-.043-.109-.082-.217-.118-.328C7110.873,968.413,7110.829,968.28,7110.788,968.145Z" transform="translate(-7109.679 -944.865)" fill="url(#linear-gradient-5)"/>
      <path id="Path_14716" data-name="Path 14716" d="M7110.788,968.145c.077.244.159.487.246.729-.043-.109-.082-.217-.118-.328C7110.873,968.413,7110.829,968.28,7110.788,968.145Z" transform="translate(-7109.679 -944.865)" fill="url(#linear-gradient-5)"/>
      <path id="Path_14717" data-name="Path 14717" d="M7144.689,1019.167a16.978,16.978,0,0,1-1.731-1.433C7143.515,1018.236,7144.091,1018.716,7144.689,1019.167Z" transform="translate(-7134.091 -982.495)" fill="url(#linear-gradient-7)"/>
      <path id="Path_14718" data-name="Path 14718" d="M7135.589,1003.28l-.072-.055Z" transform="translate(-7128.445 -971.485)" fill="url(#linear-gradient-8)"/>
      <path id="Path_14719" data-name="Path 14719" d="M7136.516,1003.954c-.238-.161-.47-.33-.7-.5C7136.045,1003.624,7136.278,1003.792,7136.516,1003.954Z" transform="translate(-7128.672 -971.657)" fill="url(#linear-gradient-9)"/>
    </g>
    <g id="Group_4500" data-name="Group 4500" transform="translate(7060.027 820.086)">
      <path id="Path_14720" data-name="Path 14720" d="M7125.668,847.43a27.285,27.285,0,0,1-9.639,20.837c-.072.063-.147.123-.219.181a27.308,27.308,0,0,1-4.659,3.135,17.171,17.171,0,0,0,4.218-4.124,17.05,17.05,0,0,0,3.507-10.369c0-.176,0-.349-.01-.523,0,0,0-.007,0-.009.007-.232.01-.463.01-.7a27.311,27.311,0,0,0-1.071-7.6c.007-.123.012-.246.015-.371q.007-.232.007-.463a19.5,19.5,0,0,0-19.5-19.5h-38.3a10.253,10.253,0,0,1,9.966-7.842h28.331A27.345,27.345,0,0,1,7125.668,847.43Z" transform="translate(-7060.027 -820.086)" fill="url(#linear-gradient-10)"/>
    </g>
    <path id="Path_14721" data-name="Path 14721" d="M7186.491,890.928a10.342,10.342,0,0,0-1.156.067v6.391a2.957,2.957,0,0,1-2.957,2.957h-6.1c-.023.277-.038.556-.038.839a10.254,10.254,0,1,0,10.253-10.254Z" transform="translate(-88.187 -53.759)" fill="#201744"/>
  </g>
</svg>
